<svg width="18" height="18" viewBox="0 0 18 18" fill="none" xmlns="http://www.w3.org/2000/svg">
<g clip-path="url(#clip0_40_590)">
<path d="M6.00005 18C7.65606 18 9.00009 16.656 9.00009 15V12H6.00005C4.34403 12 3 13.344 3 15C3 16.656 4.34403 18 6.00005 18Z" fill="#0ACF83"/>
<path d="M3 9.00002C3 7.34402 4.34403 6 6.00005 6H9.00009V12H6.00005C4.34403 12 3 10.656 3 9.00002Z" fill="#A259FF"/>
<path d="M3 3.00002C3 1.34402 4.34403 0 6.00005 0H9.00009V5.99998H6.00005C4.34403 5.99998 3 4.65602 3 3.00002Z" fill="#F24E1E"/>
<path d="M8.99988 0H11.9999C13.6559 0 15 1.34402 15 3.00002C15 4.65602 13.6559 5.99998 11.9999 5.99998H8.99988V0Z" fill="#FF7262"/>
<path d="M15 9.00002C15 10.656 13.6559 12 11.9999 12C10.3439 12 8.99988 10.656 8.99988 9.00002C8.99988 7.34402 10.3439 6 11.9999 6C13.6559 6 15 7.34402 15 9.00002Z" fill="#1ABCFE"/>
</g>
<defs>
<clipPath id="clip0_40_590">
<rect width="18" height="18" fill="white"/>
</clipPath>
</defs>
</svg>
