<svg width="18" height="18" viewBox="0 0 18 18" fill="none" xmlns="http://www.w3.org/2000/svg">
<g clip-path="url(#clip0_62_486)">
<path d="M3.1875 0H14.8125C16.575 0 18 1.46154 18 3.26923V14.7308C18 16.5385 16.575 18 14.8125 18H3.1875C1.425 18 0 16.5385 0 14.7308V3.26923C0 1.46154 1.425 0 3.1875 0Z" fill="#330000"/>
<path d="M8.69999 10.7691H5.90999L5.33999 12.5768C5.32499 12.646 5.26499 12.6922 5.19749 12.6845H3.78749C3.70499 12.6845 3.68249 12.6383 3.70499 12.546L6.11999 5.41526C6.14249 5.33834 6.16499 5.25373 6.19499 5.16142C6.22499 4.99988 6.23999 4.83065 6.23999 4.66142C6.23249 4.62296 6.26249 4.5845 6.29999 4.5768H8.24249C8.30249 4.5768 8.33249 4.59988 8.33999 4.63834L11.0775 12.5614C11.1 12.646 11.0775 12.6845 11.0025 12.6845H9.43499C9.38249 12.6922 9.32999 12.6537 9.31499 12.5999L8.69999 10.7691ZM6.34499 9.20757H8.24999C8.20499 9.04603 8.14499 8.85373 8.07749 8.65373C8.00999 8.44603 7.94249 8.22296 7.87499 7.99219C7.79999 7.75373 7.73249 7.52296 7.65749 7.28449C7.58249 7.04603 7.51499 6.82296 7.45499 6.59988C7.39499 6.3845 7.34249 6.18449 7.28999 5.99988H7.27499C7.20749 6.33065 7.12499 6.66142 7.01999 6.99219C6.90749 7.36142 6.79499 7.74603 6.67499 8.13065C6.56999 8.52296 6.45749 8.88449 6.34499 9.20757ZM12.75 5.92296C12.5025 5.93065 12.2625 5.83065 12.0825 5.65373C11.91 5.46142 11.82 5.20757 11.8275 4.94603C11.82 4.6845 11.9175 4.43834 12.0975 4.26142C12.2775 4.0845 12.5175 3.99219 12.765 3.99219C13.0575 3.99219 13.2825 4.0845 13.4475 4.26142C13.6125 4.44603 13.7025 4.69219 13.695 4.94603C13.7025 5.20757 13.6125 5.46142 13.4325 5.65373C13.26 5.83834 13.005 5.93834 12.75 5.92296ZM11.91 12.5999V6.6768C11.91 6.59988 11.94 6.56911 12.0075 6.56911H13.4925C13.56 6.56911 13.59 6.60757 13.59 6.6768V12.5999C13.59 12.6845 13.56 12.723 13.4925 12.723H12.0225C11.9475 12.723 11.91 12.6768 11.91 12.5999Z" fill="#FF9A00"/>
</g>
<defs>
<clipPath id="clip0_62_486">
<rect width="18" height="18" fill="white"/>
</clipPath>
</defs>
</svg>
