<svg width="20" height="18" viewBox="0 0 20 18" fill="none" xmlns="http://www.w3.org/2000/svg">
<path d="M10 12.2513C14.9706 12.2513 19 10.7957 19 9.00003C19 7.20442 14.9706 5.74878 10 5.74878C5.02944 5.74878 1 7.20442 1 9.00003C1 10.7957 5.02944 12.2513 10 12.2513Z" stroke="#61DAFB"/>
<path d="M7.024 10.6256C9.50928 14.6984 12.8564 17.2722 14.5 16.3744C16.1436 15.4766 15.4612 11.4471 12.976 7.37437C10.4907 3.30162 7.14356 0.727818 5.49997 1.62563C3.85639 2.52344 4.53871 6.55287 7.024 10.6256Z" stroke="#61DAFB"/>
<path d="M7.024 7.37434C4.53871 11.4471 3.85639 15.4765 5.49997 16.3743C7.14356 17.2721 10.4907 14.6983 12.976 10.6256C15.4612 6.55284 16.1436 2.5234 14.5 1.62559C12.8564 0.727784 9.50928 3.30158 7.024 7.37434Z" stroke="#61DAFB"/>
<path d="M9.9999 10.5869C10.9262 10.5869 11.6772 9.87644 11.6772 9.00001C11.6772 8.12358 10.9262 7.41309 9.9999 7.41309C9.07357 7.41309 8.32263 8.12358 8.32263 9.00001C8.32263 9.87644 9.07357 10.5869 9.9999 10.5869Z" fill="#61DAFB"/>
</svg>
